<svg xmlns="http://www.w3.org/2000/svg" width="1280" height="640" viewBox="0 0 1280 640">
  <defs>
    <linearGradient id="bgGrad" x1="0" y1="0" x2="1280" y2="640" gradientUnits="userSpaceOnUse">
      <stop offset="0%" stop-color="#15111c"/>
      <stop offset="100%" stop-color="#1d1420"/>
    </linearGradient>
    <linearGradient id="docGrad" x1="96" y1="64" x2="416" y2="448" gradientUnits="userSpaceOnUse">
      <stop offset="0%"  stop-color="#7F52FF"/>
      <stop offset="50%" stop-color="#C711E1"/>
      <stop offset="100%" stop-color="#E44857"/>
    </linearGradient>
    <path id="docPath" d="M120,64
             L320,64
             Q336,64 347.3,75.3
             L404.7,132.7
             Q416,144 416,160
             L416,424
             Q416,448 392,448
             L120,448
             Q96,448 96,424
             L96,88
             Q96,64 120,64 Z"/>
    <clipPath id="docClip">
      <use href="#docPath"/>
    </clipPath>
    <linearGradient id="accentText" x1="0" y1="0" x2="1" y2="0">
      <stop offset="0%" stop-color="#a888ff"/>
      <stop offset="100%" stop-color="#e9789d"/>
    </linearGradient>
  </defs>

  <rect width="1280" height="640" fill="url(#bgGrad)"/>

  <g transform="translate(88,64) scale(0.94)">
    <use href="#docPath" fill="url(#docGrad)"/>
    <g clip-path="url(#docClip)">
      <path d="M336,80 Q336,64 347.3,75.3 L404.7,132.7 Q416,144 400,144 L348,144 Q336,144 336,132 Z"
            fill="#ffffff" opacity="0.22"/>
      <path d="M347.3,75.3 L404.7,132.7" fill="none" stroke="#ffffff" stroke-opacity="0.35" stroke-width="2" stroke-linecap="round"/>
      <g transform="translate(196,196)" opacity="0.92">
        <path d="M0,0 L120,0 L60,60 L120,120 L0,120 Z" fill="#ffffff" fill-opacity="0.85"/>
      </g>
      <g transform="translate(128,148) rotate(-20)" opacity="0.55">
        <path d="M18,0 L2,30 L16,30 L9,60 L38,24 L22,24 Z" fill="#ffffff"/>
      </g>
      <g transform="translate(330,180) rotate(9)" opacity="0.38">
        <text x="0" y="0" font-family="Georgia, 'Times New Roman', serif" font-size="52" font-weight="700" fill="#ffffff">{ }</text>
      </g>
      <g transform="translate(240,110) rotate(25)" opacity="0.2" fill="none" stroke="#ffffff" stroke-width="6" stroke-linecap="round">
        <path d="M0,10 C7,0 13,20 20,10 C27,0 33,20 40,10"/>
        <path d="M0,26 C7,16 13,36 20,26 C27,16 33,36 40,26"/>
      </g>
      <g transform="translate(350,380) rotate(180)" opacity="0.3" fill="none" stroke="#ffffff" stroke-width="5" stroke-linecap="round" stroke-linejoin="round">
        <circle cx="9" cy="9" r="8"/>
        <path d="M16,15 L40,39 M32,31 L38,25 M38,37 L44,31"/>
      </g>
      <g transform="translate(140,370) rotate(-20)" opacity="0.48" fill="#ffffff">
        <rect x="0" y="16" width="44" height="10" rx="3"/>
        <rect x="6" y="6"  width="44" height="10" rx="3" opacity="0.75"/>
        <rect x="12" y="-4" width="44" height="10" rx="3" opacity="0.55"/>
      </g>
    </g>
  </g>

  <g transform="translate(560,0)">
    <text x="0" y="330" font-family="-apple-system, BlinkMacSystemFont, 'Segoe UI', Helvetica, Arial, sans-serif"
          font-size="88" font-weight="700" letter-spacing="-2" fill="#f4f0f8">Documents</text>
    <text x="4" y="384" font-family="-apple-system, BlinkMacSystemFont, 'Segoe UI', Helvetica, Arial, sans-serif"
          font-size="30" font-weight="500" fill="url(#accentText)">Typed, reactive documents on MMKV</text>
    <text x="4" y="428" font-family="ui-monospace, 'SF Mono', 'JetBrains Mono', Menlo, monospace"
          font-size="22" fill="#8d84a0">Kotlin Multiplatform · Android &amp; iOS</text>
  </g>
</svg>
